<svg xmlns="http://www.w3.org/2000/svg" width="149" height="60" viewBox="0 0 149 60">
    <path fill="#e3000b" d="M46.596 31.341l-4.657-4.656-23.298-.005v-4.667h27.955V12.72H0v27.93h18.641v-2.326h9.319v9.308h-9.32v-2.326H0v9.308l4.662 4.657h37.277l4.657-4.657zM97.796 31.341l-4.657-4.702H69.836v-4.641h27.96V12.72H51.2v27.93h18.636v-2.326h9.318l.006 9.308h-9.324v-2.326H51.2v9.308l4.657 4.657h37.282l4.657-4.657zM148.996 31.341l-4.662-4.702h-23.298v-4.641h27.96V12.72H102.4v27.93h18.636v-2.326h9.319l.005 9.308h-9.324v-2.326H102.4v9.308l4.657 4.657h37.277l4.662-4.657zM6.773 8.138h-2V3.37L2.111 8.138H0V.38h1.996v4.767L4.656.38h2.107zM14.873 8.138h-1.996V4.976h-2.771v3.162H8.11V.38h1.996v3.046h2.771V.38h1.996zM16.649 2.213a.76.76 0 0 0-.202-.226.478.478 0 0 0-.297-.106h-.444V.38c.096-.015.197-.035.308-.056a4.328 4.328 0 0 1 .69-.055c.393 0 .71.096.948.292.241.196.443.448.604.76l1.109 2.104h.776V.381h1.996v3.045h.776l1.109-2.104c.16-.312.367-.564.604-.76.247-.196.56-.292.953-.292a4.401 4.401 0 0 1 .69.055c.111.02.217.04.313.056v1.5h-.444a.48.48 0 0 0-.302.106.677.677 0 0 0-.197.226l-1.053 1.994 2.167 3.936h-2.107l-1.723-3.161h-.776v3.161H20.15V4.982h-.776l-1.718 3.161H15.55l2.162-3.936zM33.568 8.138H27.41V.38h6.153v1.55h-4.162v1.496h3.275v1.55h-3.275v1.611h4.162zM41.223 8.138h-1.996V4.976h-2.771v3.162H34.46V.38h1.996v3.046h2.771V.38h1.996zM48.708 8.138H42.55V.38h6.158v1.55h-4.162v1.496h3.275v1.55h-3.275v1.611h4.162zM49.6.38h4.662c.776 0 1.34.176 1.693.524.353.352.524.916.524 1.691v1.108c0 .775-.176 1.339-.524 1.691-.353.352-.917.529-1.693.529H51.6v2.215h-1.996zm4.883 2.215c0-.443-.221-.664-.665-.664h-2.217v2.436h2.217c.444 0 .665-.221.665-.664zM64.253 8.138h-1.996V4.976h-2.771v3.162H57.49V.38h1.996v3.046h2.771V.38h1.996zM66.962 8.138H64.8L67.738.38h2.223l2.943 7.758h-2.162l-.504-1.385h-2.772zm.993-2.825h1.774l-.887-2.602zM80.115 8.138h-1.996V5.585h-1.497l-1.385 2.553H73.13l1.441-2.658c-.473-.111-.811-.338-1.023-.675-.206-.337-.312-.816-.312-1.43v-.78c0-.775.176-1.34.529-1.691.353-.353.912-.524 1.693-.524h4.662zm-4.889-4.763c0 .443.222.665.666.665h2.222V1.93h-2.222c-.444 0-.666.222-.666.665z"/>
    <g>
        <path fill="#e3000b" d="M89.257 4.207l2.162 3.936h-2.107l-1.719-3.161h-.997v3.161H84.6V.381h1.996v3.045h.997l1.11-2.104a2.35 2.35 0 0 1 .604-.76c.237-.196.554-.292.947-.292a4.403 4.403 0 0 1 .69.055c.112.02.212.04.313.056v1.5h-.443a.458.458 0 0 0-.298.106.76.76 0 0 0-.201.226zM99.077 6.034c0 .775-.177 1.34-.53 1.692-.347.352-.912.523-1.693.523h-2.772c-.776 0-1.34-.176-1.693-.523-.353-.353-.529-.912-.529-1.692V2.49c0-.775.176-1.339.53-1.691.352-.353.911-.529 1.692-.529h2.772c.776 0 1.34.176 1.694.529.352.352.529.91.529 1.691zM97.08 2.49c0-.443-.222-.664-.665-.664h-1.89c-.444 0-.665.221-.665.664v3.55c0 .442.221.664.665.664h1.89c.443 0 .665-.222.665-.665zM106.837 3.818l-1.557 2.774h-1.552l-1.552-2.774v4.325h-1.996V.38h2.107l2.222 4.103L106.726.38h2.107v7.758h-1.996zM116.933 8.138h-1.996V1.93h-2.771v6.207h-1.996V.38h6.768v7.758zM119.652 8.138h-2.162L120.428.38h2.223l2.943 7.758h-2.162l-.5-1.385h-2.771zm.998-2.825h1.774l-.887-2.602zM132.913 8.138h-1.996V4.98h-2.771v3.162h-1.996V.38h1.996v3.046h2.771V.38h1.996zM141.013 8.138h-1.996V3.375l-2.66 4.768h-2.107V.38h1.996v4.767l2.66-4.767h2.107zM147.01 8.138V5.585h-1.498l-1.385 2.553h-2.107l1.441-2.658c-.473-.111-.811-.338-1.023-.675-.206-.337-.312-.816-.312-1.43v-.78c0-.775.176-1.34.529-1.691.353-.353.912-.524 1.693-.524h4.662v7.758zm-2.888-4.763c0 .443.221.665.665.665h2.222V1.93h-2.222c-.444 0-.665.222-.665.665z"/>
    </g>
</svg>
